<svg xmlns="http://www.w3.org/2000/svg" version="1.0" width="533.333" height="533.333" viewBox="0 0 400 400"><path d="M24.518 209.065V162.88H2.484v-20.422l23.94.58c13.168.319 24.02.64 24.118.713.097.073.288 25.19.424 55.817l.246 55.685H24.518zM69.433 247.296v-7.955l22.342-21.267c30.668-29.193 33.055-32.146 33.109-40.957.047-7.819-4.9-12.767-13.794-13.8-8.936-1.036-16.553 1.195-23.524 6.89-1.913 1.563-3.928 2.841-4.48 2.841-.55 0-4.976-2.54-9.834-5.643l-8.832-5.644 2.57-3.246c3.938-4.972 8.153-8.14 15.578-11.713 8.679-4.175 16.85-5.957 27.32-5.957 18.439 0 33.17 7.602 39.052 20.152 2.016 4.3 2.264 5.806 2.194 13.323-.085 9.051-1.698 14.896-6.082 22.033-1.145 1.865-9.938 11.113-19.54 20.551l-17.458 17.161h47.82V255.252H69.433zM183.623 230.576c-9.046-13.695-16.879-25.707-17.406-26.693-.85-1.59.856-4.5 15.167-25.847 8.87-13.23 16.817-24.761 17.662-25.623 1.49-1.521 1.65-1.406 5.342 3.813 2.094 2.96 9.827 14.437 17.186 25.505l13.38 20.123-4.52 7.42c-2.487 4.08-10.336 16.145-17.442 26.81l-12.921 19.392zm23.828-12.042c3.17-4.742 6.836-10.462 8.145-12.712l2.38-4.09-8.319-12.223c-4.575-6.723-8.61-12.223-8.967-12.223-1.551 0-17.698 23.261-17.698 25.496 0 1.138 11.695 18.928 15.115 22.993 1.094 1.3 2.347 2.141 2.784 1.871.437-.27 3.39-4.37 6.56-9.112zM264.348 209.489v-45.763h-22.881V142.54h49.152v112.712h-26.271zM309.271 246.989l.008-8.263 12.337-11.428c6.785-6.285 18.537-17.726 26.115-25.424 15.383-15.625 17.174-18.497 16.421-26.331-.824-8.574-5.997-12.128-17.538-12.05-8.707.059-13.059 1.481-19.33 6.32-4.499 3.47-4.577 3.494-7.259 2.189-4.724-2.3-14.999-9.967-14.999-11.193 0-1.958 9.922-10.302 16.127-13.562 8.3-4.362 17.073-6.405 27.44-6.39 14.988.022 25.526 3.72 33.626 11.802 6.846 6.83 8.65 12.037 8.258 23.84-.272 8.17-.547 9.449-3.126 14.53-3.507 6.91-11.446 15.879-26.816 30.296-6.526 6.121-11.972 11.432-12.103 11.802-.131.37 10.153.943 22.854 1.273 12.7.33 23.23.737 23.397.905.168.167.523 4.724.79 10.126l.483 9.82h-86.693l.008-8.262z" fill-opacity=".609" paint-order="markers fill stroke"/><path d="M264.61 209.301V163.61h-23.072v-20.973h48.839v112.358h-25.768zM309.253 249.947c0-2.776.087-6.473.194-8.216l.194-3.17 5.274-4.866a965.47 965.47 0 0031.043-29.98c15.738-15.9 17.973-18.905 18.343-24.675.412-6.407-1.793-11.367-6.014-13.528-3.031-1.552-5.544-1.986-11.582-1.998-9.49-.018-12.596 1.056-20.924 7.231-2.92 2.166-3.47 2.252-6.056.947-3.627-1.831-13.58-9.064-14.34-10.42-.434-.776.295-1.83 3.11-4.494 9.449-8.945 19.565-13.786 32.068-15.347 3.467-.433 12.66-.426 16.33.012 10.833 1.295 18.541 4.773 25.201 11.372 4.388 4.35 6.6 8.085 7.631 12.891 1.107 5.159.76 16.733-.625 20.859-2.807 8.36-9.536 16.455-29.436 35.41-6.138 5.846-11.16 10.798-11.16 11.003 0 .67 6.436 1.074 26.516 1.663 6.427.19 13.432.43 15.567.535l3.883.192.211 1.05c.116.576.358 3.812.537 7.19.178 3.378.402 7.322.497 8.764l.173 2.622H309.253zM196.261 249.496a56705.51 56705.51 0 00-15.892-24.165c-15.783-23.987-14.455-21.758-13.9-23.33.766-2.172 3.524-6.57 13.362-21.314 14.853-22.256 19.641-29.063 20.445-29.063.505 0 2.052 1.897 4.997 6.13 4.546 6.535 29.374 43.842 29.374 44.139 0 .812-11.227 18.28-25.492 39.663l-9.125 13.678zm6.67-24.24c3.982-5.352 15.021-22.583 15.033-23.464.008-.59-14.402-21.472-16.342-23.681l-.922-1.05-1.031.99c-2.962 2.84-13.835 18.393-16.13 23.072l-.814 1.66.998 1.761c3.295 5.81 12.69 19.63 14.875 21.877.699.719 1.546 1.307 1.882 1.307.418 0 1.195-.784 2.451-2.472zM69.555 247.245v-7.75l2.922-2.838c1.607-1.562 8.651-8.284 15.655-14.938 27.837-26.45 33.82-32.863 35.949-38.531.837-2.229 1.13-6.54.621-9.147-.987-5.063-4.692-8.698-10.527-10.327-1.499-.418-3.048-.538-7.017-.543-4.393-.005-5.444.09-7.64.685-3.434.93-7.405 2.871-10.487 5.124a191.075 191.075 0 01-4.135 2.942l-1.588 1.08-1.408-.682c-3.485-1.688-16.989-10.212-16.989-10.724 0-.712 5.2-6.54 7.46-8.36 7.485-6.032 18.58-10.553 28.944-11.793 4.257-.51 13.33-.436 17.178.14 14.653 2.191 25.37 9.073 30.287 19.449 1.636 3.452 2 5.053 2.186 9.647.31 7.654-.74 14.627-2.986 19.808-2.696 6.223-4.743 8.566-25.457 29.137-7.874 7.82-14.316 14.326-14.316 14.457 0 .131 10.719.239 23.82.239h23.82v20.674H69.554zM24.612 208.852V162.71H2.74v-20.155l8.165.208c25.14.64 39.28 1.076 39.42 1.217.202.2.605 55.915.633 87.269l.021 23.745H24.612z" fill-opacity=".609" paint-order="markers fill stroke"/><path d="M69.74 247.039l.01-7.64 11.768-11.087c20.999-19.783 38.665-37.742 40.944-41.622 1.85-3.15 2.122-4.15 2.306-8.475.246-5.778-.602-8.09-4.14-11.287-3.35-3.026-7.671-4.118-15.172-3.833-5.284.201-6.584.475-10.104 2.13-2.222 1.043-5.818 3.165-7.99 4.715l-3.949 2.818-2.104-1.003c-1.157-.552-5.32-3.04-9.25-5.53l-7.146-4.528 1.851-2.337c3.712-4.686 8.573-8.407 15.25-11.671 10.313-5.043 14.612-5.97 27.565-5.948 12.297.02 15.355.61 23.512 4.528 6.52 3.131 11.807 8.056 14.902 13.878 2.26 4.25 2.316 4.508 2.534 11.681.362 11.919-1.846 19.409-7.876 26.721-1.676 2.033-10.189 10.91-18.916 19.726l-15.868 16.03h47.554v20.374H69.729l.01-7.64zM309.426 248.162c0-3.584.171-7.292.38-8.24.262-1.185 2.526-3.685 7.258-8.014 20.055-18.347 42.29-41.088 45.455-46.489 4.237-7.23 1.394-18-5.453-20.649-5.345-2.068-17.515-1.765-22.788.568-1.52.672-4.786 2.574-7.255 4.226-4.447 2.974-4.51 2.995-6.568 2.135-2.39-.999-9.83-6.042-13.16-8.92l-2.263-1.957 2.29-2.534c3.366-3.726 11.064-9.322 16.131-11.727 8.363-3.968 12.985-4.841 25.523-4.822 12.398.02 15.6.602 23.145 4.207 5.576 2.665 12.505 9.075 15.127 13.995 2.64 4.95 3.524 11.63 2.653 20.03-1.178 11.356-4.843 16.614-26.476 37.981-8.412 8.31-15.143 15.26-14.957 15.445.304.304 8.586.722 36.864 1.862l9.09.366.361 5.183c.2 2.85.514 7.137.7 9.527l.336 4.344h-86.393z" fill-opacity=".609" paint-order="markers fill stroke"/><path d="M309.426 249.67c0-10.288-.14-9.978 8.04-17.759 13.978-13.296 33.498-32.721 38.842-38.654 6.355-7.055 8.234-10.556 8.243-15.355.02-11.379-7.796-16.205-23.15-14.297-5.447.677-8.187 1.825-15.617 6.543-2.283 1.45-3.519 1.88-4.614 1.604-1.595-.4-10.713-6.444-14.042-9.308l-2-1.72 3.465-3.409c7.239-7.124 18.658-13.267 27.258-14.662 5.72-.928 22.248-.773 27.096.255 6.58 1.394 12.467 4.589 17.742 9.628 7.291 6.966 9.133 11.403 9.129 21.982-.005 10.137-1.717 15.45-7.409 22.998-1.713 2.272-10.115 11.21-18.672 19.861-8.557 8.652-15.415 15.874-15.24 16.05.316.315 15.127 1.135 35.235 1.95l10.487.426.398 5.094c.219 2.801.553 7.048.742 9.438l.343 4.344h-86.276zM265.082 209.137v-45.543h-23.37v-20.973h48.538V254.68h-25.168zM185.02 232.058c-19.094-29.019-18.88-28.66-18.194-30.462 1.263-3.323 30.02-46.391 32.43-48.57 1.218-1.1 1.263-1.086 3.008.98.974 1.154 8.65 12.414 17.06 25.024l15.287 22.926-4.023 6.437c-4.52 7.231-30.275 46.286-30.524 46.286-.088 0-6.858-10.18-15.044-22.621zm17.534-5.993c2.365-3.204 9.896-14.617 12.806-19.41l2.95-4.856-6.145-9.065c-3.38-4.986-7.328-10.666-8.775-12.623l-2.63-3.558-2.25 2.535c-2.882 3.248-11.652 15.82-14.146 20.28l-1.919 3.43 1.258 2.12c2.213 3.732 9.844 15.18 12.698 19.05 3.075 4.17 4.312 4.59 6.153 2.097zM69.729 247.215v-7.465l5.543-5.298c37.253-35.61 45.737-44.342 48.18-49.585 1.057-2.268 1.397-4.056 1.401-7.36.008-5.296-.862-7.547-4.015-10.392-3.65-3.293-7.397-4.294-15.054-4.022-5.693.203-6.842.439-10.502 2.16-2.26 1.064-5.86 3.158-8 4.654l-3.89 2.72-3.985-2.185c-4.937-2.707-13.873-8.492-13.873-8.98 0-.2.98-1.558 2.177-3.02 4.413-5.385 13.618-11.053 23.426-14.425 4.28-1.471 5.61-1.623 16.344-1.856 13.268-.29 16.853.256 24.161 3.672 11.485 5.368 17.842 13.462 18.658 23.754.768 9.691-1.288 19.433-5.416 25.658-1.163 1.753-9.944 11.258-19.515 21.123l-17.4 17.937h47.452v20.374H69.729zM24.786 208.537v-46.141H3.213v-19.7l10.637.321c5.85.177 16.299.497 23.22.712l12.584.39.38 3.895c.208 2.142.41 27.018.45 55.28l.07 51.385H24.785z" fill-opacity=".609" paint-order="markers fill stroke"/><path d="M265.082 209.137v-45.543h-23.37v-20.973h48.538V254.68h-25.168zM187.97 236.252c-15.653-23.702-21.164-32.469-21.164-33.672 0-1.182 3.527-6.861 14.346-23.106 13.28-19.94 18.11-26.666 19.142-26.66 1.103.005 4.348 4.57 21.843 30.724l12.338 18.447-4.275 6.722c-7.848 12.339-29.775 45.373-30.118 45.373-.185 0-5.636-8.022-12.111-17.828zm17.949-14.83c2.266-3.297 6.023-9.033 8.347-12.75l4.226-6.755-2.253-3.431c-1.24-1.887-4.981-7.328-8.315-12.09a3966.567 3966.567 0 01-6.475-9.265c-.537-.788-2.337.844-5.56 5.04-3.192 4.155-11.033 15.824-12.557 18.686l-1.152 2.164 6.466 9.8c8.223 12.461 10.278 15.013 11.902 14.775.81-.118 2.7-2.291 5.37-6.175zM309.452 249.436c.051-10.235-1.612-7.884 21.887-30.935 29.756-29.187 33.218-33.411 33.218-40.536 0-6.932-3.462-12.205-9.105-13.868-3.692-1.089-14.42-.931-18.48.27-1.822.54-5.597 2.372-8.389 4.071-2.79 1.7-5.773 3.102-6.627 3.118-1.621.03-9.657-4.908-14.151-8.695l-2.52-2.124 3.718-3.554c6.482-6.194 14.299-10.845 22.616-13.457 4.098-1.287 5.53-1.405 17.058-1.405 10.515 0 13.175.181 16.18 1.103 11.519 3.531 21.644 12.682 23.95 21.644 1.17 4.55 1.177 14.43.014 19.361-1.973 8.372-5.387 12.823-25.741 33.565-8.177 8.332-14.726 15.29-14.554 15.461.372.372 31.547 2.01 38.691 2.032 7.208.024 7.06-.138 7.546 8.233.225 3.885.562 7.94.748 9.012l.34 1.947H309.426z" fill-opacity=".609" paint-order="markers fill stroke"/><path d="M309.535 247.895c.216-5.638.479-7.13 1.558-8.838.713-1.13 9.713-10.28 19.998-20.332 21.089-20.612 29.74-29.912 31.95-34.348 2.79-5.598 1.811-12.618-2.363-16.958-3.152-3.277-6.04-4.078-14.398-3.994-7.898.078-10.553.818-17.663 4.922-2.895 1.67-5.879 3.037-6.631 3.037-2.055 0-9.51-4.572-14.78-9.064l-1.919-1.637 3.86-3.61c6.81-6.371 14.797-11.035 23.35-13.636 5.223-1.588 27.07-1.582 32.334.008 10.087 3.049 18.745 10.029 22.66 18.27 1.613 3.396 1.841 4.578 2.08 10.787.483 12.492-1.751 18.632-10.365 28.484-2.524 2.887-10.532 11.3-17.796 18.697-7.265 7.396-13.065 13.591-12.89 13.766.263.263 22.422 1.468 40.486 2.203 2.847.115 4.548.458 4.87.98.274.443.679 3.807.9 7.478.222 3.67.555 7.55.74 8.622l.335 1.947h-86.576z" fill-opacity=".609" paint-order="markers fill stroke"/></svg>